# xmcd
#
# Track frame offsets:
#	150
#	19950
#	40735
#	60414
#	77381
#	97320
#	119686
#	134528
#	169201
#	186507
#	200796
#	214017
#
# Disc length: 3043 seconds
#
# Revision: 1
# Processed by: cddbd v1.5.2PL0 Copyright (c) Steve Scherf et al.
# Submitted via: audiograbber 1.83.01
#
DISCID=b40be10c
DTITLE=Michael Martin Murphey - Blugrass Album
DYEAR=2010
DGENRE=Bluegrass
TTITLE0=Boy From The Country
TTITLE1=Carolina In The Pines
TTITLE2=Cherokee Fiddle
TTITLE3=Dancin' In The Meadow
TTITLE4=Fiddlin' Man
TTITLE5=Healing Spring
TTITLE6=Lost River
TTITLE7=Renegade
TTITLE8=Swans Against The Sun
TTITLE9=What Am I Doin' Hangin' 'Round?
TTITLE10=Wild Bird
TTITLE11=Lone Cowboy
EXTD=
EXTT0=
EXTT1=
EXTT2=
EXTT3=
EXTT4=
EXTT5=
EXTT6=
EXTT7=
EXTT8=
EXTT9=
EXTT10=
EXTT11=
PLAYORDER=
